<?xml version="1.0" standalone="no"?>
<!DOCTYPE svg PUBLIC "-//W3C//DTD SVG 20010904//EN"
 "http://www.w3.org/TR/2001/REC-SVG-20010904/DTD/svg10.dtd">
<svg version="1.0" xmlns="http://www.w3.org/2000/svg"
 width="512.000000pt" height="512.000000pt" viewBox="0 0 512.000000 512.000000"
 preserveAspectRatio="xMidYMid meet">

<g transform="translate(0.000000,512.000000) scale(0.100000,-0.100000)"
fill="#000000" stroke="none">
<path d="M2250 4481 c-7 -13 -10 -275 -10 -778 0 -417 -4 -763 -8 -770 -7 -11
-78 56 -619 587 -940 922 -964 945 -991 945 l-27 0 0 -921 c0 -684 3 -927 12
-945 6 -13 14 -62 17 -108 4 -54 11 -90 21 -101 9 -10 15 -36 15 -68 0 -33 6
-56 16 -67 9 -8 18 -34 21 -56 3 -22 12 -43 19 -46 9 -3 14 -21 14 -44 0 -27
6 -45 20 -56 11 -10 20 -30 20 -46 0 -15 7 -30 15 -33 8 -4 15 -17 15 -30 0
-13 9 -29 20 -36 12 -8 20 -24 20 -41 0 -15 6 -30 14 -33 8 -3 18 -19 21 -35
4 -16 11 -29 16 -29 5 0 16 -15 24 -32 32 -66 40 -78 52 -78 7 0 13 -8 13 -18
0 -11 9 -27 20 -37 11 -10 20 -24 20 -32 0 -7 6 -13 14 -13 7 0 16 -9 19 -20
3 -11 12 -20 21 -20 9 0 16 -8 16 -18 0 -10 25 -44 55 -77 30 -32 55 -62 55
-67 0 -4 6 -8 14 -8 7 0 16 -9 19 -20 3 -11 12 -20 21 -20 9 0 16 -7 16 -15 0
-8 5 -15 10 -15 6 0 25 -15 43 -34 17 -19 48 -45 67 -58 41 -27 65 -46 88 -70
9 -10 22 -18 29 -18 7 0 13 -4 13 -8 0 -9 77 -62 90 -62 4 0 10 -6 13 -14 3
-8 19 -17 36 -21 17 -4 31 -11 31 -16 0 -5 11 -14 25 -19 14 -5 25 -14 25 -20
0 -5 11 -10 23 -10 13 0 32 -9 42 -20 10 -11 31 -20 47 -20 15 0 28 -4 28 -10
0 -5 17 -14 39 -20 21 -5 44 -17 51 -25 7 -8 27 -15 45 -15 18 0 35 -6 38 -14
3 -7 24 -16 46 -19 22 -3 48 -12 56 -21 11 -10 34 -16 65 -16 33 0 50 -5 54
-15 4 -11 21 -15 67 -15 45 0 68 -5 82 -18 18 -16 84 -17 1043 -20 l1024 -2 5
22 c3 13 5 457 3 986 -3 905 -4 964 -20 973 -14 8 -18 24 -18 75 0 51 -5 72
-20 91 -12 15 -20 41 -20 63 0 21 -7 43 -15 50 -8 7 -15 29 -15 50 0 24 -7 43
-20 55 -12 11 -20 31 -20 52 0 21 -6 36 -15 39 -9 4 -15 19 -15 35 0 18 -8 34
-20 41 -12 8 -20 24 -20 39 0 15 -6 29 -14 32 -8 3 -17 19 -21 35 -3 17 -13
33 -21 36 -8 3 -14 14 -14 25 0 11 -6 26 -12 33 -24 26 -55 74 -62 96 -4 12
-14 22 -22 22 -8 0 -14 7 -14 15 0 14 -6 23 -50 73 -11 12 -20 27 -20 32 0 6
-7 13 -15 16 -8 4 -15 10 -15 15 0 15 -227 249 -276 284 -15 11 -35 28 -43 38
-9 9 -21 17 -28 17 -7 0 -13 7 -13 15 0 8 -7 15 -15 15 -7 0 -18 6 -22 13 -10
15 -69 57 -81 57 -5 0 -17 9 -27 20 -10 11 -28 20 -40 20 -11 0 -26 5 -32 11
-13 13 -46 33 -90 54 -17 8 -34 19 -38 25 -3 5 -17 10 -29 10 -13 0 -29 6 -35
14 -7 8 -25 18 -41 21 -16 3 -34 13 -41 21 -6 8 -22 14 -35 14 -12 0 -29 7
-38 15 -8 8 -30 18 -48 22 -18 3 -36 10 -39 15 -3 5 -26 12 -50 15 -24 3 -53
12 -64 19 -11 6 -45 15 -75 19 -30 4 -61 12 -68 18 -7 6 -63 14 -125 18 -62 4
-130 12 -152 18 -22 6 -75 11 -117 11 -66 0 -79 -3 -88 -19z"/>
</g>
</svg>
